<svg width="82" height="37" viewBox="0 0 82 37" fill="none" xmlns="http://www.w3.org/2000/svg">
<path fill-rule="evenodd" clip-rule="evenodd" d="M12.2301 2.89062C13.1951 2.89062 13.9773 3.66713 13.9773 4.625V10.4062C13.9773 11.3641 13.1951 12.1406 12.2301 12.1406C11.2652 12.1406 10.483 11.3641 10.483 10.4062V4.625C10.483 3.66713 11.2652 2.89062 12.2301 2.89062Z" fill="#1B1D1E"/>
<path fill-rule="evenodd" clip-rule="evenodd" d="M12.2301 15.0312C13.1951 15.0312 13.9773 15.8078 13.9773 16.7656V32.375C13.9773 33.3329 13.1951 34.1094 12.2301 34.1094C11.2652 34.1094 10.483 33.3329 10.483 32.375V16.7656C10.483 15.8078 11.2652 15.0312 12.2301 15.0312Z" fill="#1B1D1E"/>
<path fill-rule="evenodd" clip-rule="evenodd" d="M6.98861 2.89062C7.95354 2.89062 8.73577 3.66713 8.73577 4.625V11.5625C8.73577 12.4825 9.10392 13.3648 9.75924 14.0153C10.4145 14.6658 11.3033 15.0312 12.2301 15.0312C13.1568 15.0312 14.0456 14.6658 14.7009 14.0153C15.3563 13.3648 15.7244 12.4825 15.7244 11.5625V4.625C15.7244 3.66713 16.5066 2.89062 17.4716 2.89062C18.4365 2.89062 19.2187 3.66713 19.2187 4.625V11.5625C19.2187 13.4024 18.4824 15.167 17.1718 16.4681C15.8612 17.7691 14.0836 18.5 12.2301 18.5C10.3766 18.5 8.599 17.7691 7.28838 16.4681C5.97776 15.167 5.24146 13.4024 5.24146 11.5625V4.625C5.24146 3.66713 6.02368 2.89062 6.98861 2.89062Z" fill="#1B1D1E"/>
<path fill-rule="evenodd" clip-rule="evenodd" d="M30.7041 3.20444C31.1709 3.52902 31.4489 4.05924 31.4489 4.62501V32.375C31.4489 33.3329 30.6667 34.1094 29.7017 34.1094C28.7368 34.1094 27.9546 33.3329 27.9546 32.375V24.8594H21.5483C21.0525 24.8594 20.5801 24.6503 20.2487 24.2842C19.9174 23.9182 19.7583 23.4296 19.8111 22.9402L21.5483 23.125C19.8111 22.9402 19.8111 22.9407 19.8111 22.9402L19.8117 22.9348L19.8129 22.9234L19.8175 22.8834C19.8214 22.8491 19.8271 22.7999 19.8347 22.7366C19.85 22.6099 19.8729 22.4269 19.9042 22.1949C19.9667 21.731 20.0629 21.07 20.1986 20.2712C20.4692 18.6778 20.9003 16.5166 21.5417 14.2694C22.1794 12.0352 23.0449 9.64415 24.2095 7.62835C25.3519 5.65107 26.9281 3.78073 29.1046 2.99506C29.6403 2.80171 30.2372 2.87986 30.7041 3.20444ZM23.5547 21.3906H27.9546V8.25023C27.714 8.57952 27.4757 8.9473 27.2407 9.35409C26.276 11.0238 25.5035 13.1133 24.9037 15.215C24.3075 17.3038 23.9014 19.334 23.6442 20.8479C23.612 21.0375 23.5822 21.2188 23.5547 21.3906Z" fill="#1B1D1E"/>
<path d="M45.8962 3C46.431 3 46.9275 3.06893 47.3859 3.20679C47.8501 3.34464 48.2527 3.55143 48.5935 3.82715C48.9403 4.09687 49.2106 4.43552 49.4045 4.8431C49.6043 5.25068 49.7042 5.72718 49.7042 6.27262V11.8469C49.7042 12.3144 49.6543 12.728 49.5544 13.0876C49.4545 13.4412 49.3222 13.7499 49.1577 14.0136C48.999 14.2714 48.8168 14.4931 48.6112 14.6789C48.4055 14.8588 48.1969 15.0056 47.9853 15.1195C47.4799 15.3952 46.907 15.551 46.2664 15.587H43.3399C43.0049 15.587 42.7463 15.5301 42.5642 15.4162C42.382 15.2963 42.2498 15.1405 42.1675 14.9487C42.0852 14.7509 42.0353 14.5291 42.0176 14.2834C42.0059 14.0376 42 13.7829 42 13.5191V5.04988C42 4.79215 42.0059 4.54041 42.0176 4.29466C42.0353 4.04892 42.0852 3.83014 42.1675 3.63834C42.2498 3.44654 42.382 3.2937 42.5642 3.17981C42.7463 3.05994 43.0049 3 43.3399 3H45.8962ZM44.6797 5.10383V13.4472H45.8257C46.0784 13.4352 46.3046 13.3753 46.5044 13.2674C46.5867 13.2254 46.669 13.1685 46.7512 13.0966C46.8335 13.0247 46.907 12.9407 46.9716 12.8448C47.0362 12.7429 47.0862 12.6231 47.1214 12.4852C47.1626 12.3474 47.1832 12.1885 47.1832 12.0087V6.70418C47.1832 6.50638 47.1626 6.33256 47.1214 6.18271C47.0862 6.02688 47.0362 5.89201 46.9716 5.77813C46.907 5.66425 46.8335 5.56835 46.7512 5.49043C46.669 5.41251 46.5867 5.34957 46.5044 5.30162C46.3046 5.18774 46.0784 5.12181 45.8257 5.10383H44.6797Z" fill="#1B1D1E"/>
<path d="M58.5015 13.5551C58.5015 13.8068 58.4927 14.0556 58.475 14.3013C58.4574 14.5411 58.4045 14.7569 58.3164 14.9487C58.2282 15.1405 58.096 15.2963 57.9197 15.4162C57.7434 15.5301 57.4966 15.587 57.1792 15.587C56.856 15.587 56.6033 15.5331 56.4212 15.4252C56.239 15.3113 56.1038 15.1764 56.0157 15.0206C55.9275 14.8588 55.8717 14.6909 55.8482 14.5171C55.8306 14.3433 55.8217 14.1964 55.8217 14.0766C55.7689 14.2504 55.6925 14.4272 55.5926 14.607C55.4985 14.7868 55.3751 14.9487 55.2223 15.0925C55.0695 15.2364 54.8844 15.3562 54.667 15.4521C54.4554 15.5421 54.2057 15.587 53.9177 15.587C53.5945 15.587 53.2713 15.5331 52.9481 15.4252C52.6249 15.3173 52.334 15.1375 52.0754 14.8857C51.8168 14.634 51.6053 14.3073 51.4407 13.9057C51.2821 13.4982 51.2027 12.9977 51.2027 12.4043V9.79698C51.2027 9.1976 51.2821 8.69712 51.4407 8.29553C51.6053 7.88795 51.8168 7.56129 52.0754 7.31555C52.334 7.06381 52.6249 6.88399 52.9481 6.7761C53.2713 6.66821 53.5945 6.61427 53.9177 6.61427C54.2057 6.61427 54.4554 6.65922 54.667 6.74913C54.8844 6.83904 55.0695 6.95592 55.2223 7.09977C55.3751 7.24362 55.4985 7.40545 55.5926 7.58527C55.6925 7.76508 55.7689 7.9449 55.8217 8.12471C55.8217 7.82502 55.8629 7.57628 55.9452 7.37848C56.0274 7.18068 56.1332 7.02485 56.2625 6.91096C56.3918 6.79109 56.5357 6.71017 56.6944 6.66821C56.859 6.62026 57.0206 6.59629 57.1792 6.59629C57.4731 6.59629 57.7081 6.65623 57.8844 6.7761C58.0607 6.88998 58.1929 7.04283 58.2811 7.23463C58.3751 7.42044 58.4339 7.63921 58.4574 7.89095C58.4868 8.1367 58.5015 8.38844 58.5015 8.64617V13.5551ZM53.9177 12.1705C53.9177 12.3324 53.9236 12.4912 53.9354 12.647C53.9471 12.8029 53.9794 12.9437 54.0323 13.0696C54.0852 13.1955 54.1616 13.2974 54.2615 13.3753C54.3673 13.4472 54.5113 13.4832 54.6934 13.4832C54.9226 13.4832 55.1077 13.4322 55.2488 13.3303C55.3957 13.2224 55.5103 13.0606 55.5926 12.8448C55.6748 12.6231 55.7307 12.3474 55.76 12.0177C55.7953 11.682 55.8159 11.2834 55.8217 10.8219C55.8217 10.6361 55.8041 10.4233 55.7689 10.1836C55.7395 9.93784 55.6836 9.70708 55.6014 9.4913C55.5191 9.27552 55.4045 9.09271 55.2576 8.94287C55.1107 8.79302 54.9226 8.7181 54.6934 8.7181C54.5113 8.7181 54.3673 8.75706 54.2615 8.83498C54.1616 8.9069 54.0852 9.0028 54.0323 9.12268C53.9794 9.24256 53.9471 9.38041 53.9354 9.53625C53.9236 9.6861 53.9177 9.83894 53.9177 9.99478V12.1705Z" fill="#1B1D1E"/>
<path d="M60.811 8.61021C60.811 8.35847 60.8227 8.11272 60.8462 7.87297C60.8756 7.63322 60.9373 7.42044 61.0313 7.23463C61.1254 7.04283 61.2605 6.88998 61.4368 6.7761C61.6131 6.65623 61.8511 6.59629 62.1508 6.59629C62.4505 6.59629 62.6885 6.65623 62.8648 6.7761C63.0411 6.88998 63.1763 7.04283 63.2703 7.23463C63.3643 7.42044 63.4231 7.63322 63.4466 7.87297C63.476 8.11272 63.4907 8.35847 63.4907 8.61021V13.5731C63.4907 13.8248 63.476 14.0736 63.4466 14.3193C63.4231 14.5591 63.3643 14.7748 63.2703 14.9666C63.1763 15.1525 63.0411 15.3023 62.8648 15.4162C62.6885 15.5301 62.4505 15.587 62.1508 15.587C61.8511 15.587 61.6131 15.5301 61.4368 15.4162C61.2605 15.3023 61.1254 15.1525 61.0313 14.9666C60.9373 14.7748 60.8756 14.5591 60.8462 14.3193C60.8227 14.0736 60.811 13.8248 60.811 13.5731V8.61021ZM63.5083 4.36659C63.5083 4.82811 63.3908 5.17276 63.1557 5.40052C62.9207 5.62229 62.5916 5.73318 62.1685 5.73318C61.7453 5.73318 61.4163 5.62229 61.1812 5.40052C60.9461 5.17276 60.8286 4.82811 60.8286 4.36659C60.8286 3.88708 60.9461 3.53944 61.1812 3.32367C61.4163 3.10789 61.7453 3 62.1685 3C62.621 3 62.9559 3.10789 63.1734 3.32367C63.3967 3.53944 63.5083 3.88708 63.5083 4.36659Z" fill="#1B1D1E"/>
<path d="M66.2057 4.99594C66.2057 4.7442 66.2174 4.49845 66.2409 4.2587C66.2703 4.01895 66.332 3.80617 66.4261 3.62036C66.5201 3.43455 66.6552 3.28471 66.8315 3.17082C67.0078 3.05694 67.2458 3 67.5455 3C67.8511 3 68.0921 3.05694 68.2684 3.17082C68.4447 3.28471 68.5769 3.43455 68.665 3.62036C68.7591 3.80617 68.8178 4.01895 68.8413 4.2587C68.8707 4.49845 68.8854 4.7442 68.8854 4.99594V13.5731C68.8854 13.8248 68.8707 14.0736 68.8413 14.3193C68.8178 14.5591 68.7591 14.7748 68.665 14.9666C68.5769 15.1525 68.4447 15.3023 68.2684 15.4162C68.0921 15.5301 67.8511 15.587 67.5455 15.587C67.2458 15.587 67.0078 15.5301 66.8315 15.4162C66.6552 15.3023 66.5201 15.1525 66.4261 14.9666C66.332 14.7748 66.2703 14.5591 66.2409 14.3193C66.2174 14.0736 66.2057 13.8248 66.2057 13.5731V4.99594Z" fill="#1B1D1E"/>
<path d="M72.1645 19.1833C71.4946 19.1833 71.0186 19.0844 70.7365 18.8866C70.4545 18.6948 70.3134 18.4101 70.3134 18.0325C70.3134 17.8467 70.3369 17.6908 70.3839 17.565C70.4368 17.4391 70.5073 17.3372 70.5955 17.2593C70.6836 17.1814 70.7835 17.1244 70.8952 17.0885C71.0127 17.0585 71.1361 17.0435 71.2654 17.0435C71.3536 17.0435 71.4358 17.0465 71.5122 17.0525C71.5886 17.0585 71.6533 17.0615 71.7062 17.0615C71.8178 17.0615 71.9236 16.9926 72.0235 16.8547C72.1293 16.7228 72.2292 16.555 72.3232 16.3512C72.4231 16.1474 72.523 15.9287 72.6229 15.6949C72.7228 15.4611 72.8227 15.2454 72.9226 15.0476L72.7816 14.6879C72.6112 14.2504 72.4319 13.7919 72.2439 13.3124C72.0558 12.8269 71.8678 12.3384 71.6797 11.8469C71.4976 11.3494 71.3154 10.8549 71.1332 10.3634C70.9569 9.87191 70.7953 9.3954 70.6484 8.93387C70.5837 8.74207 70.5279 8.55327 70.4809 8.36746C70.4398 8.18165 70.4192 7.99884 70.4192 7.81903C70.4192 7.64521 70.4545 7.48337 70.525 7.33353C70.5955 7.18368 70.6925 7.05481 70.8159 6.94693C70.9393 6.83904 71.0803 6.75512 71.239 6.69519C71.4035 6.62925 71.5769 6.59629 71.7591 6.59629C71.9236 6.59629 72.0735 6.63225 72.2086 6.70418C72.3497 6.7761 72.4731 6.875 72.5788 7.00087C72.6905 7.12674 72.7875 7.27059 72.8697 7.43242C72.952 7.59426 73.0225 7.76508 73.0813 7.9449L74.2625 11.739L75.3908 7.9449C75.4437 7.77707 75.5113 7.60924 75.5935 7.44142C75.6758 7.27359 75.7728 7.12674 75.8844 7.00087C75.9961 6.86901 76.1224 6.76411 76.2635 6.68619C76.4045 6.60228 76.5602 6.56032 76.7307 6.56032C76.9011 6.56032 77.0627 6.59329 77.2155 6.65922C77.3741 6.72515 77.5093 6.81806 77.621 6.93794C77.7385 7.05182 77.8296 7.18968 77.8942 7.35151C77.9647 7.51334 78 7.68716 78 7.87297C78 8.05278 77.9765 8.2326 77.9295 8.41241C77.8883 8.58623 77.8355 8.76005 77.7708 8.93387L75.6552 14.652C75.5318 14.9756 75.3967 15.3113 75.2498 15.6589C75.1087 16.0126 74.953 16.3572 74.7826 16.6929C74.6121 17.0285 74.43 17.3462 74.236 17.6459C74.0421 17.9456 73.8364 18.2093 73.619 18.4371C73.4016 18.6648 73.1694 18.8446 72.9226 18.9765C72.6817 19.1144 72.429 19.1833 72.1645 19.1833Z" fill="#1B1D1E"/>
<path d="M45.8962 21.413C46.431 21.413 46.9275 21.4819 47.3859 21.6198C47.8501 21.7576 48.2527 21.9644 48.5935 22.2401C48.9403 22.5099 49.2106 22.8485 49.4045 23.2561C49.6043 23.6637 49.7042 24.1402 49.7042 24.6856V30.2599C49.7042 30.7274 49.6543 31.141 49.5544 31.5006C49.4545 31.8542 49.3222 32.1629 49.1577 32.4266C48.999 32.6844 48.8168 32.9061 48.6112 33.0919C48.4055 33.2718 48.1969 33.4186 47.9853 33.5325C47.4799 33.8082 46.907 33.964 46.2664 34H43.3399C43.0049 34 42.7463 33.9431 42.5642 33.8292C42.382 33.7093 42.2498 33.5535 42.1675 33.3617C42.0852 33.1639 42.0353 32.9421 42.0176 32.6963C42.0059 32.4506 42 32.1959 42 31.9321V23.4629C42 23.2051 42.0059 22.9534 42.0176 22.7077C42.0353 22.4619 42.0852 22.2431 42.1675 22.0513C42.2498 21.8595 42.382 21.7067 42.5642 21.5928C42.7463 21.4729 43.0049 21.413 43.3399 21.413H45.8962ZM44.6797 23.5168V31.8602H45.8257C46.0784 31.8482 46.3046 31.7883 46.5044 31.6804C46.5867 31.6384 46.669 31.5815 46.7512 31.5096C46.8335 31.4376 46.907 31.3537 46.9716 31.2578C47.0362 31.1559 47.0862 31.0361 47.1214 30.8982C47.1626 30.7603 47.1832 30.6015 47.1832 30.4217V25.1172C47.1832 24.9194 47.1626 24.7456 47.1214 24.5957C47.0862 24.4399 47.0362 24.305 46.9716 24.1911C46.907 24.0772 46.8335 23.9813 46.7512 23.9034C46.669 23.8255 46.5867 23.7626 46.5044 23.7146C46.3046 23.6007 46.0784 23.5348 45.8257 23.5168H44.6797Z" fill="#1B1D1E"/>
<path d="M51.8198 27.0232C51.8198 26.7715 51.8315 26.5257 51.855 26.286C51.8844 26.0462 51.9461 25.8334 52.0402 25.6476C52.1342 25.4558 52.2693 25.303 52.4456 25.1891C52.6219 25.0692 52.8599 25.0093 53.1596 25.0093C53.4594 25.0093 53.6974 25.0692 53.8737 25.1891C54.05 25.303 54.1851 25.4558 54.2791 25.6476C54.3732 25.8334 54.4319 26.0462 54.4554 26.286C54.4848 26.5257 54.4995 26.7715 54.4995 27.0232V31.9861C54.4995 32.2378 54.4848 32.4866 54.4554 32.7323C54.4319 32.9721 54.3732 33.1878 54.2791 33.3796C54.1851 33.5654 54.05 33.7153 53.8737 33.8292C53.6974 33.9431 53.4594 34 53.1596 34C52.8599 34 52.6219 33.9431 52.4456 33.8292C52.2693 33.7153 52.1342 33.5654 52.0402 33.3796C51.9461 33.1878 51.8844 32.9721 51.855 32.7323C51.8315 32.4866 51.8198 32.2378 51.8198 31.9861V27.0232ZM54.5171 22.7796C54.5171 23.2411 54.3996 23.5858 54.1645 23.8135C53.9295 24.0353 53.6004 24.1462 53.1773 24.1462C52.7542 24.1462 52.4251 24.0353 52.19 23.8135C51.9549 23.5858 51.8374 23.2411 51.8374 22.7796C51.8374 22.3001 51.9549 21.9524 52.19 21.7367C52.4251 21.5209 52.7542 21.413 53.1773 21.413C53.6298 21.413 53.9647 21.5209 54.1822 21.7367C54.4055 21.9524 54.5171 22.3001 54.5171 22.7796Z" fill="#1B1D1E"/>
<path d="M64.2311 28.8753C64.2311 28.9712 64.2253 29.0851 64.2135 29.2169C64.2018 29.3428 64.1548 29.4657 64.0725 29.5856C63.9961 29.6994 63.8727 29.7983 63.7023 29.8822C63.5318 29.9662 63.2909 30.0081 62.9794 30.0081H59.4711V30.8712C59.4711 31.0151 59.4887 31.1649 59.524 31.3208C59.5593 31.4766 59.618 31.6205 59.7003 31.7523C59.7884 31.8842 59.903 31.9921 60.0441 32.076C60.1851 32.1599 60.3585 32.2019 60.5642 32.2019C60.7992 32.2019 60.9785 32.1749 61.1019 32.1209C61.2311 32.061 61.331 31.9891 61.4016 31.9052C61.478 31.8212 61.5455 31.7313 61.6043 31.6354C61.6631 31.5395 61.7395 31.4496 61.8335 31.3657C61.9334 31.2818 62.0686 31.2129 62.239 31.1589C62.4153 31.099 62.6562 31.069 62.9618 31.069C63.1087 31.069 63.2498 31.081 63.3849 31.105C63.526 31.129 63.6494 31.1739 63.7551 31.2398C63.8609 31.3058 63.9461 31.3987 64.0108 31.5186C64.0754 31.6324 64.1077 31.7823 64.1077 31.9681C64.1077 32.3577 63.9873 32.6844 63.7463 32.9481C63.5054 33.2058 63.2027 33.4126 62.8384 33.5684C62.474 33.7243 62.0774 33.8352 61.6484 33.9011C61.2253 33.967 60.8286 34 60.4584 34C59.9706 33.994 59.5064 33.9311 59.0656 33.8112C58.6249 33.6913 58.2341 33.4995 57.8932 33.2358C57.5583 32.9721 57.2909 32.6274 57.0911 32.2019C56.8913 31.7763 56.7914 31.2548 56.7914 30.6375V28.5336C56.7914 27.9642 56.856 27.4817 56.9853 27.0861C57.1205 26.6905 57.2938 26.3609 57.5054 26.0972C57.7169 25.8334 57.9549 25.6296 58.2194 25.4858C58.4838 25.3359 58.7512 25.2251 59.0215 25.1531C59.2919 25.0812 59.5475 25.0363 59.7884 25.0183C60.0353 25.0003 60.2468 24.9913 60.4231 24.9913C61.0166 24.9913 61.522 25.0452 61.9393 25.1531C62.3624 25.261 62.715 25.4019 62.9971 25.5757C63.2791 25.7495 63.5024 25.9503 63.667 26.1781C63.8315 26.4058 63.9549 26.6426 64.0372 26.8883C64.1195 27.1281 64.1724 27.3738 64.1959 27.6256C64.2194 27.8713 64.2311 28.1021 64.2311 28.3179V28.8753ZM59.4711 28.6595H61.6748C61.6748 28.3778 61.666 28.1291 61.6484 27.9133C61.6366 27.6915 61.5926 27.5057 61.5162 27.3559C61.4456 27.206 61.331 27.0921 61.1724 27.0142C61.0196 26.9363 60.7992 26.8973 60.5113 26.8973C60.2703 26.8973 60.0793 26.9363 59.9383 27.0142C59.8031 27.0921 59.7003 27.191 59.6298 27.3109C59.5593 27.4248 59.5152 27.5477 59.4976 27.6795C59.4799 27.8114 59.4711 27.9283 59.4711 28.0302V28.6595Z" fill="#1B1D1E"/>
<path d="M67.2458 25.0093V23.4269C67.2458 23.1752 67.2576 22.9294 67.2811 22.6897C67.3105 22.4499 67.3722 22.2371 67.4662 22.0513C67.5602 21.8595 67.6954 21.7067 67.8717 21.5928C68.048 21.4729 68.286 21.413 68.5857 21.413C68.8795 21.413 69.1146 21.4729 69.2909 21.5928C69.4672 21.7067 69.5994 21.8595 69.6876 22.0513C69.7816 22.2371 69.8404 22.4499 69.8639 22.6897C69.8932 22.9294 69.9079 23.1752 69.9079 23.4269V25.0093H70.6308C70.7835 25.0093 70.9363 25.0183 71.0891 25.0363C71.2419 25.0482 71.3771 25.0902 71.4946 25.1621C71.618 25.234 71.715 25.3419 71.7855 25.4858C71.8619 25.6296 71.9001 25.8304 71.9001 26.0882C71.9001 26.3339 71.8619 26.5287 71.7855 26.6726C71.715 26.8164 71.618 26.9243 71.4946 26.9962C71.3771 27.0682 71.2419 27.1161 71.0891 27.1401C70.9363 27.1581 70.7835 27.1671 70.6308 27.1671H69.9079V30.3138C69.9079 30.4337 69.9109 30.5625 69.9167 30.7004C69.9285 30.8323 69.9608 30.9551 70.0137 31.069C70.0666 31.1829 70.1459 31.2788 70.2517 31.3567C70.3575 31.4287 70.5073 31.4646 70.7013 31.4646C70.9128 31.4646 71.0921 31.4826 71.239 31.5186C71.3918 31.5485 71.5152 31.6055 71.6092 31.6894C71.7091 31.7733 71.7826 31.8902 71.8296 32.04C71.8766 32.1899 71.9001 32.3817 71.9001 32.6154C71.9001 32.8552 71.8443 33.062 71.7326 33.2358C71.6268 33.4096 71.4829 33.5535 71.3007 33.6673C71.1185 33.7812 70.907 33.8651 70.666 33.9191C70.4251 33.973 70.1724 34 69.9079 34C69.4907 34 69.1322 33.955 68.8325 33.8651C68.5387 33.7752 68.2919 33.6494 68.0921 33.4875C67.8981 33.3197 67.7424 33.1219 67.6249 32.8941C67.5132 32.6604 67.428 32.3997 67.3692 32.1119C67.3164 31.8242 67.2811 31.5156 67.2635 31.1859C67.2517 30.8503 67.2458 30.4996 67.2458 30.134V27.1671H66.7522C66.5994 27.1671 66.4466 27.1581 66.2938 27.1401C66.1469 27.1161 66.0147 27.0682 65.8972 26.9962C65.7796 26.9243 65.6827 26.8164 65.6063 26.6726C65.5357 26.5287 65.5005 26.3339 65.5005 26.0882C65.5005 25.8304 65.5357 25.6296 65.6063 25.4858C65.6827 25.3419 65.7796 25.234 65.8972 25.1621C66.0147 25.0902 66.1469 25.0482 66.2938 25.0363C66.4466 25.0183 66.5994 25.0093 66.7522 25.0093H67.2458Z" fill="#1B1D1E"/>
</svg>
